<svg width="23" height="22" viewBox="0 0 23 22" fill="none" xmlns="http://www.w3.org/2000/svg">
<path d="M21.62 4.56604H16.537C16.4171 3.31649 15.8347 2.15634 14.9033 1.31207C13.972 0.467796 12.7586 0 11.5 0C10.2414 0 9.02804 0.467796 8.09668 1.31207C7.16532 2.15634 6.58286 3.31649 6.463 4.56604H1.38C1.014 4.56604 0.662993 4.71105 0.404193 4.96917C0.145392 5.22728 0 5.57737 0 5.9424V20.6236C0 20.9887 0.145392 21.3388 0.404193 21.5969C0.662993 21.855 1.014 22 1.38 22H21.62C21.986 22 22.337 21.855 22.5958 21.5969C22.8546 21.3388 23 20.9887 23 20.6236V5.9424C23 5.57737 22.8546 5.22728 22.5958 4.96917C22.337 4.71105 21.986 4.56604 21.62 4.56604ZM11.5 0.895731C12.5181 0.897599 13.5 1.27252 14.259 1.94922C15.0181 2.62591 15.5014 3.5572 15.617 4.56604H7.383C7.49863 3.5572 7.9819 2.62591 8.74096 1.94922C9.50001 1.27252 10.4819 0.897599 11.5 0.895731ZM22.08 20.6236C22.08 20.7453 22.0315 20.862 21.9453 20.948C21.859 21.0341 21.742 21.0824 21.62 21.0824H1.38C1.258 21.0824 1.141 21.0341 1.05473 20.948C0.968464 20.862 0.92 20.7453 0.92 20.6236V5.9424C0.92 5.82073 0.968464 5.70403 1.05473 5.61799C1.141 5.53195 1.258 5.48362 1.38 5.48362H6.44V8.69513C6.44 8.81681 6.48846 8.93351 6.57473 9.01955C6.661 9.10559 6.778 9.15392 6.9 9.15392C7.022 9.15392 7.139 9.10559 7.22527 9.01955C7.31154 8.93351 7.36 8.81681 7.36 8.69513V5.48362H15.64V8.69513C15.64 8.81681 15.6885 8.93351 15.7747 9.01955C15.861 9.10559 15.978 9.15392 16.1 9.15392C16.222 9.15392 16.339 9.10559 16.4253 9.01955C16.5115 8.93351 16.56 8.81681 16.56 8.69513V5.48362H21.62C21.742 5.48362 21.859 5.53195 21.9453 5.61799C22.0315 5.70403 22.08 5.82073 22.08 5.9424V20.6236Z" fill="#FF5C00"/>
</svg>
