<svg width="97" height="65" viewBox="0 0 97 65" fill="none" xmlns="http://www.w3.org/2000/svg">
<g filter="url(#filter0_d_429_312)">
<circle cx="65.5" cy="31.5" r="22.5" fill="#3191C7"/>
</g>
<path d="M52.5728 25.7383L59.3258 44.2343C54.602 41.9456 51.3486 37.102 51.3486 31.5C51.3486 29.4442 51.7877 27.5014 52.5728 25.7383ZM75.054 30.7881C75.054 29.0383 74.4286 27.8274 73.8897 26.8827C73.1712 25.7183 72.4992 24.727 72.4992 23.5627C72.4992 22.2587 73.4839 21.0478 74.8744 21.0478C74.9343 21.0478 74.9942 21.0544 75.0607 21.0611C72.5391 18.7524 69.1859 17.3419 65.5 17.3419C60.5567 17.3419 56.2054 19.8768 53.6706 23.7224C54.0032 23.7357 54.3159 23.7423 54.5821 23.7423C56.0591 23.7423 58.3544 23.5627 58.3544 23.5627C59.1196 23.5161 59.206 24.6405 58.4476 24.727C58.4476 24.727 57.6825 24.8135 56.8308 24.8601L61.9871 40.1891L65.0875 30.9012L62.8853 24.8601C62.1202 24.8135 61.4016 24.727 61.4016 24.727C60.6365 24.6804 60.7296 23.5161 61.4881 23.5627C61.4881 23.5627 63.8234 23.7423 65.2139 23.7423C66.6909 23.7423 68.9863 23.5627 68.9863 23.5627C69.7514 23.5161 69.8379 24.6405 69.0794 24.727C69.0794 24.727 68.3143 24.8135 67.4627 24.8601L72.579 40.076L73.9895 35.3589C74.5883 33.4028 75.054 31.999 75.054 30.7881ZM65.7462 32.7375L61.5014 45.0792C62.7722 45.4518 64.1095 45.6581 65.5 45.6581C67.15 45.6581 68.7268 45.372 70.1972 44.853C70.1573 44.7931 70.124 44.7266 70.0974 44.6601L65.7462 32.7375ZM77.9216 24.7071C77.9815 25.1595 78.0147 25.6385 78.0147 26.1641C78.0147 27.6012 77.7486 29.2113 76.9369 31.2339L72.6123 43.7353C76.8238 41.2802 79.6514 36.7228 79.6514 31.5C79.6514 29.0383 79.026 26.723 77.9216 24.7071ZM82 31.5C82 40.6016 74.595 48 65.5 48C56.3984 48 49 40.595 49 31.5C49 22.3984 56.3984 15 65.5 15C74.595 15 82 22.3984 82 31.5ZM81.2415 31.5C81.2415 22.8175 74.1758 15.7585 65.5 15.7585C56.8175 15.7585 49.7585 22.8175 49.7585 31.5C49.7585 40.1825 56.8242 47.2415 65.5 47.2415C74.1825 47.2415 81.2415 40.1825 81.2415 31.5Z" fill="white"/>
<g filter="url(#filter1_d_429_312)">
<circle cx="31.5" cy="31.5" r="22.5" fill="white"/>
</g>
<path d="M42.396 51.1903C42.2287 51.2788 42.2427 51.307 42.403 51.2254C42.4524 51.2052 42.4977 51.1762 42.5366 51.1396C42.5366 51.1101 42.5366 51.1101 42.396 51.1903ZM42.7335 51.0074C42.6533 51.0735 42.6533 51.0735 42.7489 51.0299C42.7843 51.0134 42.8166 50.991 42.8446 50.9638C42.8446 50.9259 42.8221 50.9343 42.7335 51.0074ZM42.9528 50.8752C42.8727 50.9413 42.8727 50.9413 42.9683 50.8977C43.0038 50.8808 43.0361 50.858 43.0639 50.8302C43.0639 50.7951 43.0414 50.8021 42.9528 50.8752ZM43.175 50.7445C43.0949 50.8106 43.0949 50.8106 43.1877 50.7656C43.2397 50.7374 43.2833 50.7079 43.2833 50.6995C43.2833 50.6643 43.2608 50.6713 43.175 50.7445ZM43.4746 50.5462C43.3213 50.6488 43.2678 50.7149 43.4085 50.6418C43.5027 50.5841 43.663 50.4576 43.6349 50.4576C43.5744 50.4801 43.5238 50.5181 43.4731 50.5462H43.4746ZM30.027 9.01034C29.9243 9.01737 29.6164 9.04549 29.3464 9.06799C22.951 9.64738 16.9676 13.09 13.175 18.393C11.0792 21.3016 9.71683 24.6733 9.2039 28.2215C9.0225 29.459 9 29.8247 9 31.5024C9 33.1786 9.0225 33.5386 9.2039 34.7762C10.4287 43.2293 16.4416 50.3254 24.592 52.9551C26.0587 53.4234 27.5957 53.7469 29.3464 53.9452C30.027 54.0183 32.9702 54.0183 33.6508 53.9452C36.6769 53.6076 39.232 52.8609 41.7604 51.5714C42.1485 51.3745 42.2216 51.3224 42.1696 51.2788C40.9362 49.6484 39.7132 48.01 38.5008 46.3639L34.9051 41.508L30.4011 34.8352C28.9028 32.601 27.3893 30.3772 25.8604 28.1638C25.8449 28.1638 25.8253 31.1297 25.8168 34.7466C25.8014 41.0819 25.8014 41.3393 25.7212 41.4855C25.6443 41.6622 25.5066 41.8054 25.3331 41.8891C25.1939 41.9552 25.0687 41.9693 24.4036 41.9693H23.6428L23.4445 41.8455C23.3204 41.7659 23.2195 41.6548 23.1521 41.5235L23.0564 41.3252L23.0635 32.5064L23.0789 23.6877L23.2182 23.5119C23.3071 23.4038 23.4165 23.3144 23.5402 23.2489C23.7244 23.1603 23.7975 23.1462 24.5583 23.1462C25.4512 23.1462 25.5989 23.1814 25.8337 23.4388C27.6583 26.1527 29.4672 28.8772 31.2602 31.612C34.1837 36.0446 38.1746 42.093 40.1362 45.0603L43.7038 50.459L43.8795 50.3423C45.5941 49.2029 47.1477 47.8383 48.4989 46.2852C51.3332 43.041 53.1723 39.0486 53.7961 34.786C53.9775 33.5485 54 33.1814 54 31.5052C54 29.8275 53.9775 29.4689 53.7961 28.2314C52.5713 19.7782 46.5584 12.6821 38.408 10.051C36.8848 9.56852 35.3169 9.24015 33.7281 9.07081C33.3021 9.02721 30.394 8.97518 30.0284 9.01315L30.027 9.01034ZM39.2334 22.6189C39.338 22.6703 39.4314 22.742 39.5079 22.8299C39.5844 22.9178 39.6427 23.0201 39.6792 23.1308C39.7172 23.2489 39.7242 25.6944 39.7172 31.2028L39.7017 39.1117L38.311 36.9742L36.9118 34.8352V29.0934C36.9118 25.371 36.9273 23.2841 36.9469 23.1814C37.0158 22.946 37.1737 22.7467 37.3871 22.6259C37.5615 22.5373 37.629 22.5303 38.325 22.5303C38.9761 22.5303 39.0872 22.5373 39.2334 22.6189Z" fill="#1B1B1B"/>
<defs>
<filter id="filter0_d_429_312" x="36" y="2" width="61" height="61" filterUnits="userSpaceOnUse" color-interpolation-filters="sRGB">
<feFlood flood-opacity="0" result="BackgroundImageFix"/>
<feColorMatrix in="SourceAlpha" type="matrix" values="0 0 0 0 0 0 0 0 0 0 0 0 0 0 0 0 0 0 127 0" result="hardAlpha"/>
<feOffset dx="1" dy="1"/>
<feGaussianBlur stdDeviation="4"/>
<feComposite in2="hardAlpha" operator="out"/>
<feColorMatrix type="matrix" values="0 0 0 0 0 0 0 0 0 0 0 0 0 0 0 0 0 0 0.24 0"/>
<feBlend mode="normal" in2="BackgroundImageFix" result="effect1_dropShadow_429_312"/>
<feBlend mode="normal" in="SourceGraphic" in2="effect1_dropShadow_429_312" result="shape"/>
</filter>
<filter id="filter1_d_429_312" x="0" y="0" width="65" height="65" filterUnits="userSpaceOnUse" color-interpolation-filters="sRGB">
<feFlood flood-opacity="0" result="BackgroundImageFix"/>
<feColorMatrix in="SourceAlpha" type="matrix" values="0 0 0 0 0 0 0 0 0 0 0 0 0 0 0 0 0 0 127 0" result="hardAlpha"/>
<feOffset dx="1" dy="1"/>
<feGaussianBlur stdDeviation="5"/>
<feComposite in2="hardAlpha" operator="out"/>
<feColorMatrix type="matrix" values="0 0 0 0 0 0 0 0 0 0 0 0 0 0 0 0 0 0 0.25 0"/>
<feBlend mode="normal" in2="BackgroundImageFix" result="effect1_dropShadow_429_312"/>
<feBlend mode="normal" in="SourceGraphic" in2="effect1_dropShadow_429_312" result="shape"/>
</filter>
</defs>
</svg>
